<?xml version="1.0" encoding="UTF-8"?>
<svg id="Camada_2" data-name="Camada 2" xmlns="http://www.w3.org/2000/svg" viewBox="0 0 667.4 183.62">
  <defs>
    <style>
      .cls-1 {
        fill: #fff;
      }

      .cls-2 {
        fill: #ff0;
      }
    </style>
  </defs>
  <g id="Camada_1-2" data-name="Camada 1">
    <g>
      <g>
        <path class="cls-1" d="M326.68,123.88v-52.94h-24.35v-11.21h59.91v11.21h-24.35v52.94h-11.21Z"/>
        <path class="cls-1" d="M378.29,76.94v46.94h-10.68v-58.23c0-4.15,2.21-6.71,5.74-6.71,1.68,0,3.09.62,4.76,2.29l45.26,44.91v-46.94h10.68v58.76c0,4.23-2.29,6.7-5.56,6.7-1.85,0-3.53-.79-5.12-2.38l-45.09-45.35Z"/>
        <path class="cls-1" d="M463.69,123.88v-52.94h-24.35v-11.21h59.91v11.21h-24.35v52.94h-11.21Z"/>
        <path class="cls-1" d="M529.06,123.88V59.74h54.44v11.21h-43.32v52.94h-11.12ZM548.38,97.32v-9.79h32.47v9.79h-32.47Z"/>
        <path class="cls-1" d="M590.11,123.88V59.74h11.21v64.14h-11.21Z"/>
        <path class="cls-1" d="M631.84,123.88v-52.94h-24.35v-11.21h59.91v11.21h-24.35v52.94h-11.21Z"/>
      </g>
      <g>
        <polygon class="cls-2" points="117.12 0 33.91 83.21 0 49.22 49.21 0 117.12 0"/>
        <polygon class="cls-2" points="270.43 47.5 181.45 136.51 145.84 100.9 196.26 50.49 197.52 49.23 234.82 11.92 270.43 47.5"/>
        <polygon class="cls-2" points="169.48 148.47 134.31 183.62 98.73 148.04 45.49 94.79 80.63 59.62 169.48 148.47"/>
        <polygon class="cls-2" points="222.86 0 134.31 88.55 92.61 47.67 140.23 0 222.86 0"/>
      </g>
    </g>
  </g>
</svg>